<!DOCTYPE svg PUBLIC "-//W3C//DTD SVG 1.1//EN" "http://www.w3.org/Graphics/SVG/1.1/DTD/svg11.dtd">
<!-- Uploaded to: SVG Repo, www.svgrepo.com, Transformed by: SVG Repo Mixer Tools -->
<svg fill="#af60ed" version="1.1" id="Capa_1" xmlns="http://www.w3.org/2000/svg" xmlns:xlink="http://www.w3.org/1999/xlink" width="800px" height="800px" viewBox="0 0 612 612" xml:space="preserve">
<g id="SVGRepo_bgCarrier" stroke-width="0"/>
<g id="SVGRepo_tracerCarrier" stroke-linecap="round" stroke-linejoin="round"/>
<g id="SVGRepo_iconCarrier"> <g> <path d="M251.733,288.168c79.576,0,144.084-64.509,144.084-144.084S331.31,0,251.733,0c-79.575,0-144.084,64.509-144.084,144.084 S172.158,288.168,251.733,288.168z M319.071,201.378c-6.555,21.671-34.632,37.963-68.283,37.963 c-33.651,0-61.728-16.292-68.282-37.963H319.071z M603.71,426.278c-3.09,85.35-37.799,158.706-118.848,185.722 c-81.049-27.016-115.758-100.372-118.848-185.722c-0.242-6.655,5.258-12.049,11.91-11.765 c37.873,1.615,70.926-10.577,99.877-34.521c4.074-3.37,10.045-3.37,14.121,0c28.949,23.943,62.004,36.136,99.875,34.521 C598.452,414.229,603.95,419.623,603.71,426.278z M341.194,427.167c1.414,39.206,8.896,73.968,21.902,103.688 c-30.627,3.456-67.427,5.733-111.363,5.733c-138.927,0-206.913-22.701-231.838-33.792c-6.431-2.86-11.613-11.042-11.613-18.082 V437.22c0-71.171,54.188-130.214,123.333-138.123c2.101-0.241,5.216,0.659,6.929,1.899c31.881,23.08,70.912,36.854,113.19,36.854 c42.278,0,81.31-13.774,113.19-36.854c1.713-1.24,4.828-2.14,6.93-1.899c39.904,4.564,74.748,26.218,97.148,57.348 c-2.482,1.222-4.875,2.624-7.023,4.403c-23.57,19.485-48.898,28.966-77.418,28.966c-1.844,0-3.697-0.039-5.588-0.126l-1.543-0.029 c-9.811,0-19.33,4.047-26.133,11.102C344.522,407.788,340.835,417.424,341.194,427.167z"/> </g> </g>
</svg>